<mxfile host="app.diagrams.net" modified="2024-04-23T16:25:22.959Z" agent="Mozilla/5.0 (Windows NT 10.0; Win64; x64; rv:124.0) Gecko/20100101 Firefox/124.0" version="24.2.7" etag="eYzlVceAtAxuw-QtiDSl" type="github">
  <diagram name="Page-1" id="JyUAWg4hAXqNZ3yMDjeo">
    <mxGraphModel>
      <root>
        <mxCell id="0" />
        <mxCell id="1" parent="0" />
      </root>
    </mxGraphModel>
  </diagram>
</mxfile>
